<svg width="15" height="20" viewBox="0 0 15 20" fill="none" xmlns="http://www.w3.org/2000/svg">
<path d="M14 19V2C14 1.44772 13.5523 1 13 1H2C1.44772 1 1 1.44772 1 2V19" stroke="#404040" stroke-linecap="round"/>
<path d="M7.5 5.61803L7.58576 5.88197L7.69801 6.22746H8.06129H8.3388L8.11429 6.39058L7.82039 6.6041L7.93265 6.94959L8.01841 7.21353L7.79389 7.05041L7.5 6.83688L7.20611 7.05041L6.98159 7.21353L7.06735 6.94959L7.17961 6.6041L6.88571 6.39058L6.6612 6.22746H6.93871H7.30199L7.41424 5.88197L7.5 5.61803Z" fill="#141515" stroke="#404040"/>
<path d="M12 11H11C10.4477 11 10 11.4477 10 12V13" stroke="#404040" stroke-linecap="round"/>
</svg>
