<svg width="25" height="21" viewBox="0 0 25 21" fill="none" xmlns="http://www.w3.org/2000/svg">
<path d="M18 6V2C18 1.44772 17.5523 1 17 1H8C7.44772 1 7 1.44772 7 2V19.5" stroke="#404040" stroke-linecap="round"/>
<path d="M6.5 8H2C1.44772 8 1 8.44772 1 9V19.5" stroke="#404040" stroke-linecap="round"/>
<line x1="3.5" y1="11.5" x2="6.5" y2="11.5" stroke="#404040" stroke-linecap="round"/>
<line x1="3.5" y1="14.5" x2="6.5" y2="14.5" stroke="#404040" stroke-linecap="round"/>
<line x1="3.5" y1="17.5" x2="6.5" y2="17.5" stroke="#404040" stroke-linecap="round"/>
<line x1="10.5" y1="5.5" x2="14.5" y2="5.5" stroke="#404040" stroke-linecap="round"/>
<line x1="10.5" y1="8.5" x2="14.5" y2="8.5" stroke="#404040" stroke-linecap="round"/>
<line x1="10.5" y1="11.5" x2="11.5" y2="11.5" stroke="#404040" stroke-linecap="round"/>
<path d="M17.4001 13C17.4001 14.3453 16.4799 15.3 15.5001 15.3C14.5203 15.3 13.6001 14.3453 13.6001 13C13.6001 11.6546 14.5203 10.7 15.5001 10.7C16.4799 10.7 17.4001 11.6546 17.4001 13Z" fill="white" stroke="#404040"/>
<path d="M22.4001 8.8C22.4001 10.1453 21.4799 11.1 20.5001 11.1C19.5203 11.1 18.6001 10.1453 18.6001 8.8C18.6001 7.45466 19.5203 6.5 20.5001 6.5C21.4799 6.5 22.4001 7.45466 22.4001 8.8Z" fill="white" stroke="#404040"/>
<path d="M19.5 19.8V18.2C19.5 16.4327 18.0673 15 16.3 15H14.7C12.9327 15 11.5 16.4327 11.5 18.2V19.8" stroke="#404040" stroke-linecap="round"/>
<path d="M24.5 15.6V14C24.5 12.2327 23.0673 10.8 21.3 10.8H19.7C17.9327 10.8 16.5 12.2327 16.5 14V14" stroke="#404040" stroke-linecap="round"/>
<path d="M17.4001 13C17.4001 14.3453 16.4799 15.3 15.5001 15.3C14.5203 15.3 13.6001 14.3453 13.6001 13C13.6001 11.6546 14.5203 10.7 15.5001 10.7C16.4799 10.7 17.4001 11.6546 17.4001 13Z" fill="white" stroke="#404040"/>
<path d="M22.4001 8.8C22.4001 10.1453 21.4799 11.1 20.5001 11.1C19.5203 11.1 18.6001 10.1453 18.6001 8.8C18.6001 7.45466 19.5203 6.5 20.5001 6.5C21.4799 6.5 22.4001 7.45466 22.4001 8.8Z" fill="white" stroke="#404040"/>
</svg>
