<svg width="33" height="58" viewBox="0 0 33 58" fill="none" xmlns="http://www.w3.org/2000/svg">
<path d="M29.4324 25.375C28.553 25.375 27.7575 25.7121 27.1358 26.2495C26.5124 25.1883 25.3832 24.4688 24.0811 24.4688C23.0099 24.4688 22.0601 24.9599 21.4054 25.7212C21.1717 25.4493 20.9042 25.2119 20.6 25.0207C24.3299 22.5656 26.7568 18.2899 26.7568 13.5938C26.7568 6.09816 20.7552 0 13.3784 0C6.00154 0 0 6.09816 0 13.5938C0 19.6901 4.08754 25.075 9.81081 26.6863V35.022L6.43857 39.3095C6.31192 39.4699 6.24324 39.6693 6.24324 39.875V49.861C6.24324 50.102 6.33778 50.3331 6.50635 50.5035L9.82776 53.863C10.024 56.1775 11.9424 58 14.2703 58H27.6486C30.1076 58 32.1081 55.9673 32.1081 53.4688V51.8701L32.9064 50.2488C32.9679 50.1238 33 49.9842 33 49.8438V29C33 27.0008 31.3999 25.375 29.4324 25.375ZM9.81081 14.5V19.8596C7.63905 18.5808 6.24324 16.2083 6.24324 13.5938C6.24324 9.59628 9.44424 6.34375 13.3784 6.34375C17.3125 6.34375 20.5135 9.59628 20.5135 13.5938C20.5135 16.2083 19.1177 18.5808 16.9459 19.8596V14.5C16.9459 12.5008 15.3459 10.875 13.3784 10.875C11.4109 10.875 9.81081 12.5008 9.81081 14.5ZM1.78378 13.5938C1.78378 7.09775 6.9853 1.8125 13.3784 1.8125C19.7715 1.8125 24.973 7.09775 24.973 13.5938C24.973 18.7086 21.6569 23.2498 16.9459 24.8013V21.8995C20.171 20.4686 22.2973 17.2097 22.2973 13.5938C22.2973 8.59669 18.2963 4.53125 13.3784 4.53125C8.46049 4.53125 4.45946 8.59669 4.45946 13.5938C4.45946 17.2097 6.58662 20.4686 9.81081 21.8995V24.8013C5.09984 23.2489 1.78378 18.7077 1.78378 13.5938ZM31.2162 49.6299L30.418 51.2512C30.3564 51.3762 30.3243 51.5158 30.3243 51.6562V53.4688C30.3243 54.9677 29.1238 56.1875 27.6486 56.1875H14.2703C12.7951 56.1875 11.5946 54.9677 11.5946 53.4688C11.5946 53.2277 11.5001 52.9966 11.3315 52.8262L8.02703 49.484V40.1931L9.81081 37.9257V41.6875H11.5946V14.5C11.5946 13.5004 12.3946 12.6875 13.3784 12.6875C14.3621 12.6875 15.1622 13.5004 15.1622 14.5V28.0938V35.3438H16.9459V28.0938C16.9459 27.0942 17.746 26.2812 18.7297 26.2812C19.7135 26.2812 20.5135 27.0942 20.5135 28.0938V35.3438H22.2973V28.0938C22.2973 27.0942 23.0973 26.2812 24.0811 26.2812C25.0648 26.2812 25.8649 27.0942 25.8649 28.0938V29V35.3438V36.25H27.6486V35.3438V29C27.6486 28.0004 28.4487 27.1875 29.4324 27.1875C30.4162 27.1875 31.2162 28.0004 31.2162 29V49.6299Z" fill="#6F6F6E"/>
</svg>
