<svg xmlns="http://www.w3.org/2000/svg" xmlns:xlink="http://www.w3.org/1999/xlink" version="1.1" x="0px" y="0px" viewBox="0 0 24 24" style="enable-background:new 0 0 24 24;" xml:space="preserve"><g><g><path d="M12,2C6.4771729,2,2,6.4771118,2,12c0,5.5228271,4.4771729,10,10,10s10-4.4771729,10-10C22,6.4771118,17.5228271,2,12,2z     M18.9175415,8h-2.7944946c-0.257019-1.3061523-0.6374512-2.4609985-1.1063232-3.4049072    C16.663208,5.2683716,18.0325928,6.475708,18.9175415,8z M20,12c0,0.6916504-0.0974731,1.359436-0.2633057,2h-3.3270874    C16.4686279,13.3536987,16.5,12.6849976,16.5,12s-0.0313721-1.3536987-0.0903931-2h3.3270874    C19.9024658,10.640564,20,11.3083496,20,12z M12,20c-0.4356079,0-1.4845581-1.3949585-2.0758057-4h4.1516113    C13.4845581,18.6050415,12.4356079,20,12,20z M9.6019287,14C9.5385742,13.3770142,9.5,12.7130127,9.5,12    s0.0385742-1.3770142,0.1019287-2h4.7961426C14.4614258,10.6229858,14.5,11.2869873,14.5,12s-0.0385742,1.3770142-0.1019287,2    H9.6019287z M4,12c0-0.6916504,0.0975342-1.359436,0.2633057-2h3.3270874C7.5313721,10.6463013,7.5,11.3150024,7.5,12    s0.0313721,1.3536987,0.0903931,2H4.2633057C4.0974731,13.359436,4,12.6916504,4,12z M12,4    c0.4356079,0,1.4846191,1.3948975,2.0758667,4H9.9241333C10.5153809,5.3948975,11.5643921,4,12,4z M8.9832764,4.5950928    C8.5144043,5.5390015,8.1339722,6.6938477,7.8769531,8H5.0824585C5.9674072,6.475708,7.336792,5.2683716,8.9832764,4.5950928z     M5.0824585,16h2.7944946c0.257019,1.3061523,0.6373901,2.4608765,1.1063232,3.4048462    C7.336792,18.7315674,5.9674072,17.524292,5.0824585,16z M15.0167236,19.4048462    C15.4856567,18.4608765,15.8660278,17.3061523,16.1230469,16h2.7944946    C18.0325928,17.524292,16.663208,18.7315674,15.0167236,19.4048462z"></path></g></g></svg>