<svg width="100" height="100" viewBox="0 0 100 100" fill="none" xmlns="http://www.w3.org/2000/svg">
<path d="M48.3 6.70001H45V10H48.3V6.70001Z" fill="black"/>
<path d="M55.0002 6.70001H51.7002V10H55.0002V6.70001Z" fill="black"/>
<path d="M48.3 13.3H45V16.6H48.3V13.3Z" fill="black"/>
<path d="M55.0002 13.3H51.7002V16.6H55.0002V13.3Z" fill="black"/>
<path d="M48.3 20H45V23.3H48.3V20Z" fill="black"/>
<path d="M55.0002 20H51.7002V23.3H55.0002V20Z" fill="black"/>
<path d="M48.3 26.7H45V30H48.3V26.7Z" fill="black"/>
<path d="M55.0002 26.7H51.7002V30H55.0002V26.7Z" fill="black"/>
<path d="M48.3 33.3H45V36.6H48.3V33.3Z" fill="black"/>
<path d="M55.0002 33.3H51.7002V36.6H55.0002V33.3Z" fill="black"/>
<path d="M68.3 33.3H65V36.6H68.3V33.3Z" fill="black"/>
<path d="M68.3 40H65V43.3H68.3V40Z" fill="black"/>
<path d="M68.3 46.7H65V50H68.3V46.7Z" fill="black"/>
<path d="M68.3 53.3H65V56.6H68.3V53.3Z" fill="black"/>
<path d="M35.0002 33.3H31.7002V36.6H35.0002V33.3Z" fill="black"/>
<path d="M35.0002 40H31.7002V43.3H35.0002V40Z" fill="black"/>
<path d="M35.0002 46.7H31.7002V50H35.0002V46.7Z" fill="black"/>
<path d="M35.0002 53.3H31.7002V56.6H35.0002V53.3Z" fill="black"/>
<path d="M78.3 13.3H93.3V16.6H78.3V13.3ZM61.7 13.3H65V26.6H61.7V13.3ZM35 13.3H38.3V26.6H35V13.3ZM6.7 13.3H21.7V16.6H6.7V13.3ZM98.3 16.7H96.6V11.7C96.6 10.8 95.9 10 94.9 10H76.7C75.8 10 75 10.7 75 11.7V16.7H73.3C72.4 16.7 71.6 17.4 71.6 18.4V26.7H68.3V11.7C68.3 10.8 67.6 10 66.6 10H61.6V1.7C61.7 0.7 60.9 0 60 0H40C39.1 0 38.3 0.7 38.3 1.7V10H33.3C32.4 10 31.6 10.7 31.6 11.7V26.7H28.3V18.4C28.3 17.5 27.6 16.7 26.6 16.7H25V11.7C25 10.8 24.3 10 23.3 10H5C4.1 10 3.3 10.7 3.3 11.7V16.7H1.7C0.8 16.7 0 17.4 0 18.4V55H3.3V20H25V41.7H28.3V30H38.3V40H41.6V3.3H58.3V40H61.6V30H71.6V50H75V20H96.7V55H100V18.3C100 17.4 99.3 16.7 98.3 16.7Z" fill="black"/>
<path d="M84.9998 23.3H78.2998V26.6H84.9998V23.3Z" fill="black"/>
<path d="M94.9998 23.3H88.2998V26.6H94.9998V23.3Z" fill="black"/>
<path d="M84.9998 30H78.2998V33.3H84.9998V30Z" fill="black"/>
<path d="M94.9998 30H88.2998V33.3H94.9998V30Z" fill="black"/>
<path d="M96.7 78.3H93.4V63.3H90V96.6H86.7V80H83.4V96.7H80V65C80 64.1 79.3 63.3 78.3 63.3C77.6 63.3 77 63.7 76.8 64.3L70.6 78.3H66L72.9 63.6C72.9 63.6 72.9 63.6 72.9 63.5C73.8 61.3 76 59.9 78.3 59.9H91.6C94.4 59.9 96.6 62.1 96.6 64.9V78.3H96.7ZM73.2 80.7L76.7 72.9V96.7H58.3V73.7L61.8 80.7C61.8 80.7 61.8 80.7 61.8 80.8V80.9L61.9 81L62 81.1C62.1 81.2 62.1 81.2 62.2 81.3L62.3 81.4C62.4 81.4 62.5 81.5 62.6 81.5C62.6 81.5 62.7 81.5 62.7 81.6C62.8 81.6 63 81.7 63.1 81.7H71.4C72.3 81.7 72.9 81.3 73.2 80.7ZM51.7 96.7V81.7H48.4V96.7H45V65C45 64.1 44.3 63.3 43.3 63.3C42.6 63.3 42 63.7 41.8 64.3L36.6 76L34.3 71.2L37.9 63.6C38.4 62.5 39.1 61.6 40.1 61C41.1 60.4 42.2 60 43.3 60H56.6C59 60 61.1 61.4 62.1 63.6L65.6 71.1L63.2 76.1L58.1 65.8C57.7 65 56.7 64.6 55.9 65C55.4 65.4 55 66 55 66.7V96.7H51.7ZM37.1 81.6C37.1 81.6 37.2 81.6 37.2 81.5C37.3 81.5 37.4 81.4 37.5 81.4C37.6 81.3 37.7 81.2 37.8 81.1L37.9 81L38 80.9C38 80.9 38 80.8 38.1 80.8C38.1 80.8 38.1 80.7 38.2 80.7L41.7 72.9V96.7H23.3V73.7L26.8 80.7C27.1 81.3 27.7 81.6 28.3 81.6H36.6C36.8 81.7 37 81.6 37.1 81.6ZM16.7 96.7V80H13.4V96.7H10V65H6.7V78.3H3.3V65C3.3 62.2 5.5 60 8.3 60H21.6C24 60 26.1 61.4 27.1 63.6L34 78.3H29.3L23.1 65.9C22.7 65.1 21.7 64.7 20.9 65.1C20.4 65.4 20 66 20 66.7V96.7H16.7ZM10 51.7V48.4C10 45.6 12.2 43.4 15 43.4C17.8 43.4 20 45.6 20 48.4V51.7C20 54.5 17.8 56.7 15 56.7C12.2 56.7 10 54.4 10 51.7ZM45 51.7V48.4C45 45.6 47.2 43.4 50 43.4C52.8 43.4 55 45.6 55 48.4V51.7C55 54.5 52.8 56.7 50 56.7C47.2 56.7 45 54.4 45 51.7ZM80 51.7V48.4C80 45.6 82.2 43.4 85 43.4C87.8 43.4 90 45.6 90 48.4V51.7C90 54.5 87.8 56.7 85 56.7C82.2 56.7 80 54.4 80 51.7ZM91.7 56.7C92.8 55.3 93.4 53.5 93.4 51.7V48.4C93.4 43.8 89.7 40.1 85.1 40.1C80.5 40.1 76.8 43.8 76.8 48.4V51.7C76.8 53.5 77.4 55.3 78.5 56.7C74.8 56.7 71.5 58.9 70 62.3L67.7 67.3L65.4 62.3C63.9 58.9 60.6 56.7 56.9 56.7C58 55.3 58.6 53.5 58.6 51.7V48.4C58.6 43.8 54.9 40.1 50.3 40.1C45.7 40.1 42 43.8 42 48.4V51.7C42 53.5 42.6 55.3 43.7 56.7C40 56.7 36.7 58.9 35.2 62.3L32.8 67.3L30.5 62.3C29 58.9 25.7 56.7 22 56.7C23.1 55.3 23.7 53.5 23.7 51.7V48.4C23.7 43.8 20 40.1 15.4 40.1C10.8 40.1 7.1 43.8 7.1 48.4V51.7C7.1 53.5 7.7 55.3 8.8 56.7C3.7 56.7 0 60.4 0 65V80C0 80.9 0.7 81.7 1.7 81.7H6.7V96.7H0V100H100V96.7H93.3V81.7H98.3C99.2 81.7 100 81 100 80V65C100 60.4 96.3 56.7 91.7 56.7Z" fill="black"/>
<path d="M21.7002 23.3H6.7002V26.6H21.7002V23.3Z" fill="black"/>
<path d="M21.7002 30H6.7002V33.3H21.7002V30Z" fill="black"/>
</svg>
