<svg width="31" height="30" viewBox="0 0 31 30" fill="none" xmlns="http://www.w3.org/2000/svg">
<path d="M3.78125 28.5938H27.2188C28.511 28.5938 29.5625 27.5423 29.5625 26.25V5.625C29.5625 4.33273 28.511 3.28125 27.2188 3.28125H24.875V2.34375C24.875 1.5683 24.2442 0.9375 23.4688 0.9375C22.6933 0.9375 22.0625 1.5683 22.0625 2.34375V3.28125H19.7188V2.34375C19.7188 1.5683 19.088 0.9375 18.3125 0.9375C17.537 0.9375 16.9062 1.5683 16.9062 2.34375V3.28125H14.0938V2.34375C14.0938 1.5683 13.463 0.9375 12.6875 0.9375C11.912 0.9375 11.2812 1.5683 11.2812 2.34375V3.28125H8.9375V2.34375C8.9375 1.5683 8.3067 0.9375 7.53125 0.9375C6.7558 0.9375 6.125 1.5683 6.125 2.34375V3.28125H3.78125C2.48898 3.28125 1.4375 4.33273 1.4375 5.625V26.25C1.4375 27.5423 2.48898 28.5938 3.78125 28.5938ZM27.2188 27.6562H3.78125C3.0058 27.6562 2.375 27.0255 2.375 26.25V8.90625H28.625V26.25C28.625 27.0255 27.9942 27.6562 27.2188 27.6562ZM23 2.34375C23 2.08511 23.2101 1.875 23.4688 1.875C23.7274 1.875 23.9375 2.08511 23.9375 2.34375V5.15625C23.9375 5.41489 23.7274 5.625 23.4688 5.625C23.2101 5.625 23 5.41489 23 5.15625V2.34375ZM17.8438 2.34375C17.8438 2.08511 18.0539 1.875 18.3125 1.875C18.5711 1.875 18.7812 2.08511 18.7812 2.34375V5.15625C18.7812 5.41489 18.5711 5.625 18.3125 5.625C18.0539 5.625 17.8438 5.41489 17.8438 5.15625V2.34375ZM12.2188 2.34375C12.2188 2.08511 12.4289 1.875 12.6875 1.875C12.9461 1.875 13.1562 2.08511 13.1562 2.34375V5.15625C13.1562 5.41489 12.9461 5.625 12.6875 5.625C12.4289 5.625 12.2188 5.41489 12.2188 5.15625V2.34375ZM7.0625 2.34375C7.0625 2.08511 7.27261 1.875 7.53125 1.875C7.78989 1.875 8 2.08511 8 2.34375V5.15625C8 5.41489 7.78989 5.625 7.53125 5.625C7.27261 5.625 7.0625 5.41489 7.0625 5.15625V2.34375ZM3.78125 4.21875H6.125V5.15625C6.125 5.9317 6.7558 6.5625 7.53125 6.5625C8.3067 6.5625 8.9375 5.9317 8.9375 5.15625V4.21875H11.2812V5.15625C11.2812 5.9317 11.912 6.5625 12.6875 6.5625C13.463 6.5625 14.0938 5.9317 14.0938 5.15625V4.21875H16.9062V5.15625C16.9062 5.9317 17.537 6.5625 18.3125 6.5625C19.088 6.5625 19.7188 5.9317 19.7188 5.15625V4.21875H22.0625V5.15625C22.0625 5.9317 22.6933 6.5625 23.4688 6.5625C24.2442 6.5625 24.875 5.9317 24.875 5.15625V4.21875H27.2188C27.9942 4.21875 28.625 4.84955 28.625 5.625V7.96875H2.375V5.625C2.375 4.84955 3.0058 4.21875 3.78125 4.21875Z" fill="#3B3B3A"/>
<path d="M14.0938 9.84375H10.3438C10.0847 9.84375 9.875 10.0534 9.875 10.3125V14.0625C9.875 14.3216 10.0847 14.5312 10.3438 14.5312H14.0938C14.3528 14.5312 14.5625 14.3216 14.5625 14.0625V10.3125C14.5625 10.0534 14.3528 9.84375 14.0938 9.84375ZM13.625 13.5938H10.8125V10.7812H13.625V13.5938Z" fill="#3B3B3A"/>
<path d="M20.6562 9.84375H16.9062C16.6472 9.84375 16.4375 10.0534 16.4375 10.3125V14.0625C16.4375 14.3216 16.6472 14.5312 16.9062 14.5312H20.6562C20.9153 14.5312 21.125 14.3216 21.125 14.0625V10.3125C21.125 10.0534 20.9153 9.84375 20.6562 9.84375ZM20.1875 13.5938H17.375V10.7812H20.1875V13.5938Z" fill="#3B3B3A"/>
<path d="M27.2188 9.84375H23.4688C23.2097 9.84375 23 10.0534 23 10.3125V14.0625C23 14.3216 23.2097 14.5312 23.4688 14.5312H27.2188C27.4778 14.5312 27.6875 14.3216 27.6875 14.0625V10.3125C27.6875 10.0534 27.4778 9.84375 27.2188 9.84375ZM26.75 13.5938H23.9375V10.7812H26.75V13.5938Z" fill="#3B3B3A"/>
<path d="M7.53125 15.9375H3.78125C3.52216 15.9375 3.3125 16.1472 3.3125 16.4062V20.1562C3.3125 20.4153 3.52216 20.625 3.78125 20.625H7.53125C7.79034 20.625 8 20.4153 8 20.1562V16.4062C8 16.1472 7.79034 15.9375 7.53125 15.9375ZM4.99341 18.2812L4.25 19.0247V17.5378L4.99341 18.2812ZM4.91284 16.875H6.39966L5.65625 17.6184L4.91284 16.875ZM5.65625 18.9441L6.39966 19.6875H4.91284L5.65625 18.9441ZM6.31909 18.2812L7.0625 17.5378V19.0247L6.31909 18.2812Z" fill="#3B3B3A"/>
<path d="M14.0938 15.9375H10.3438C10.0847 15.9375 9.875 16.1472 9.875 16.4062V20.1562C9.875 20.4153 10.0847 20.625 10.3438 20.625H14.0938C14.3528 20.625 14.5625 20.4153 14.5625 20.1562V16.4062C14.5625 16.1472 14.3528 15.9375 14.0938 15.9375ZM11.5559 18.2812L10.8125 19.0247V17.5378L11.5559 18.2812ZM11.4753 16.875H12.9622L12.2188 17.6184L11.4753 16.875ZM12.2188 18.9441L12.9622 19.6875H11.4753L12.2188 18.9441ZM12.8816 18.2812L13.625 17.5378V19.0247L12.8816 18.2812Z" fill="#3B3B3A"/>
<path d="M20.6562 15.9375H16.9062C16.6472 15.9375 16.4375 16.1472 16.4375 16.4062V20.1562C16.4375 20.4153 16.6472 20.625 16.9062 20.625H20.6562C20.9153 20.625 21.125 20.4153 21.125 20.1562V16.4062C21.125 16.1472 20.9153 15.9375 20.6562 15.9375ZM18.1184 18.2812L17.375 19.0247V17.5378L18.1184 18.2812ZM18.0378 16.875H19.5247L18.7812 17.6184L18.0378 16.875ZM18.7812 18.9441L19.5247 19.6875H18.0378L18.7812 18.9441ZM19.4441 18.2812L20.1875 17.5378V19.0247L19.4441 18.2812Z" fill="#3B3B3A"/>
<path d="M27.2188 15.9375H23.4688C23.2097 15.9375 23 16.1472 23 16.4062V20.1562C23 20.4153 23.2097 20.625 23.4688 20.625H27.2188C27.4778 20.625 27.6875 20.4153 27.6875 20.1562V16.4062C27.6875 16.1472 27.4778 15.9375 27.2188 15.9375ZM26.75 19.6875H23.9375V16.875H26.75V19.6875Z" fill="#3B3B3A"/>
<path d="M7.53125 22.0312H3.78125C3.52216 22.0312 3.3125 22.2409 3.3125 22.5V26.25C3.3125 26.5091 3.52216 26.7188 3.78125 26.7188H7.53125C7.79034 26.7188 8 26.5091 8 26.25V22.5C8 22.2409 7.79034 22.0312 7.53125 22.0312ZM7.0625 25.7812H4.25V22.9688H7.0625V25.7812Z" fill="#3B3B3A"/>
<path d="M14.0938 22.0312H10.3438C10.0847 22.0312 9.875 22.2409 9.875 22.5V26.25C9.875 26.5091 10.0847 26.7188 10.3438 26.7188H14.0938C14.3528 26.7188 14.5625 26.5091 14.5625 26.25V22.5C14.5625 22.2409 14.3528 22.0312 14.0938 22.0312ZM13.625 25.7812H10.8125V22.9688H13.625V25.7812Z" fill="#3B3B3A"/>
<path d="M20.6562 22.0312H16.9062C16.6472 22.0312 16.4375 22.2409 16.4375 22.5V26.25C16.4375 26.5091 16.6472 26.7188 16.9062 26.7188H20.6562C20.9153 26.7188 21.125 26.5091 21.125 26.25V22.5C21.125 22.2409 20.9153 22.0312 20.6562 22.0312ZM20.1875 25.7812H17.375V22.9688H20.1875V25.7812Z" fill="#3B3B3A"/>
</svg>
