<svg width="100" height="100" viewBox="0 0 100 100" fill="none" xmlns="http://www.w3.org/2000/svg">
<path d="M50.0002 83.3C47.2002 83.3 45.0002 81.1 45.0002 78.3V76C48.3002 76.8 51.7002 76.8 55.0002 76V78.3C55.0002 81.1 52.8002 83.3 50.0002 83.3ZM33.5002 59.2C34.5002 59.7 35.5002 60 36.6002 60H45.0002C45.4002 60 45.9002 59.8 46.2002 59.5L49.0002 56.7H51.0002L53.8002 59.5C54.1002 59.8 54.5002 60 55.0002 60H63.3002C64.4002 60 65.5002 59.7 66.4002 59.2C65.0002 68.3 56.5002 74.5 47.4002 73.1C40.3002 72 34.6002 66.4 33.5002 59.2ZM28.3002 53.3C27.4002 53.3 26.6002 52.6 26.6002 51.6C26.6002 50.7 27.3002 49.9 28.3002 49.9H30.0002V53.2H28.3002V53.3ZM45.0002 26.7H55.0002C55.9002 26.7 56.7002 27.4 56.7002 28.4C56.7002 29.3 57.4002 30.1 58.4002 30.1C58.6002 30.1 58.8002 30.1 58.9002 30C62.0002 29 65.4002 30.6 66.4002 33.7C66.6002 34.3 66.7002 34.9 66.7002 35.6V36C61.3002 34.2 55.7002 33.3 50.0002 33.3H49.8002C44.3002 33.3 38.8002 34.2 33.6002 35.9C34.7002 30.5 39.5002 26.7 45.0002 26.7ZM71.7002 50C72.6002 50 73.4002 50.7 73.4002 51.7C73.4002 52.6 72.7002 53.4 71.7002 53.4H70.0002V50H71.7002ZM33.3002 39.5L34.5002 39.1C39.4002 37.5 44.6002 36.6 49.7002 36.6H50.0002C55.4002 36.6 60.7002 37.5 65.8002 39.2L66.8002 39.5V40.9C65.8002 40.3 64.6002 40 63.5002 40H36.7002C35.5002 40 34.4002 40.3 33.4002 40.9V39.5H33.3002ZM33.3002 46.7C33.3002 44.9 34.8002 43.4 36.6002 43.4H63.3002C65.1002 43.4 66.6002 44.9 66.6002 46.7V53.4C66.6002 55.2 65.1002 56.7 63.3002 56.7H55.7002L52.9002 53.9C52.6002 53.6 52.2002 53.4 51.7002 53.4H48.4002C48.0002 53.4 47.5002 53.6 47.2002 53.9L44.4002 56.7H36.8002C35.0002 56.7 33.5002 55.2 33.5002 53.4V46.7H33.3002ZM68.3002 78.3H58.3002V74.8C65.4002 71.6 70.0002 64.5 70.0002 56.7H71.7002C74.5002 56.7 76.7002 54.5 76.7002 51.7C76.7002 48.9 74.5002 46.7 71.7002 46.7H70.0002V35.5C70.0002 30.4 65.8002 26.2 60.7002 26.2C60.3002 26.2 59.9002 26.2 59.6002 26.3C58.8002 24.5 57.0002 23.3 55.0002 23.3H45.0002C36.7002 23.3 30.0002 30 30.0002 38.3V46.6H28.3002C25.5002 46.6 23.3002 48.8 23.3002 51.6C23.3002 54.4 25.5002 56.6 28.3002 56.6H30.0002C30.0002 64.4 34.6002 71.5 41.7002 74.8V78.3H31.7002C23.4002 78.3 16.7002 85 16.7002 93.3V100H20.0002V93.3C20.0002 86.9 25.2002 81.6 31.7002 81.6H42.4002C44.2002 85.8 49.1002 87.7 53.4002 85.9C55.3002 85.1 56.9002 83.5 57.7002 81.6H68.4002C74.8002 81.6 80.1002 86.8 80.1002 93.3V100H83.4002V93.3C83.3002 85.1 76.6002 78.3 68.3002 78.3Z" fill="black"/>
<path d="M3.3 8.3C3.3 5.5 5.5 3.3 8.3 3.3H28.3C31.1 3.3 33.3 5.5 33.3 8.3V11L29.5 7.2C28.8 6.5 27.8 6.5 27.1 7.2L27 7.3L19.8 15.9L17.8 13.9C17.1 13.2 16.1 13.2 15.4 13.9L15.3 14L7.5 23.3C5.1 22.9 3.2 20.8 3.2 18.4V8.3H3.3ZM28.3 23.3H11.9L16.8 17.4L18.8 19.4C19.5 20.1 20.5 20.1 21.2 19.4L21.3 19.3L28.5 10.7L33.4 15.6V18.2C33.3 21.1 31.1 23.3 28.3 23.3ZM8.3 26.7H28.3C32.9 26.7 36.6 23 36.6 18.4V8.4C36.6 3.8 32.9 0.100003 28.3 0.100003H8.3C3.7 2.80142e-06 0 3.7 0 8.3V18.3C0 22.9 3.7 26.7 8.3 26.7Z" fill="black"/>
<path d="M96.7004 18.3C96.7004 21.1 94.5004 23.3 91.7004 23.3H71.7004C68.9004 23.3 66.7004 21.1 66.7004 18.3V8.3C66.7004 5.5 68.9004 3.3 71.7004 3.3H91.7004C94.5004 3.3 96.7004 5.5 96.7004 8.3V18.3ZM91.7004 0H71.7004C67.1004 0 63.4004 3.7 63.4004 8.3V18.3C63.4004 22.9 67.1004 26.6 71.7004 26.6H91.7004C96.3004 26.6 100 22.9 100 18.3V8.3C100 3.7 96.3004 0 91.7004 0Z" fill="black"/>
<path d="M78.3 15.6V11L82.9 13.3L78.3 15.6ZM87.4 11.8L77.4 6.8C76.6 6.4 75.6 6.7 75.2 7.5C75.1 7.8 75 8.1 75 8.3V18.3C75 19.2 75.7 20 76.7 20C77 20 77.2 19.9 77.4 19.8L87.4 14.8C88.2 14.4 88.6 13.4 88.1 12.6C88 12.3 87.7 12 87.4 11.8Z" fill="black"/>
<path d="M10 8.3C10.9 8.3 11.7 9 11.7 10C11.7 10.9 11 11.7 10 11.7C9.1 11.7 8.3 11 8.3 10C8.3 9.1 9.1 8.3 10 8.3ZM10 15C12.8 15 15 12.8 15 10C15 7.2 12.8 5 10 5C7.2 5 5 7.2 5 10C5 12.8 7.2 15 10 15Z" fill="black"/>
<path d="M46.6998 65H53.3998C53.3998 66.8 51.8998 68.3 50.0998 68.3C48.1998 68.3 46.6998 66.8 46.6998 65ZM56.6998 65V63.3C56.6998 62.4 55.9998 61.6 54.9998 61.6H44.9998C44.0998 61.6 43.2998 62.3 43.2998 63.3V65C43.2998 68.7 46.2998 71.7 49.9998 71.7C53.6998 71.7 56.6998 68.7 56.6998 65Z" fill="black"/>
<path d="M36.7 50C37.6 50 38.4 49.3 38.4 48.3H41.7C42.6 48.3 43.4 47.6 43.4 46.6C43.4 45.7 42.7 44.9 41.7 44.9H36.7C35.8 44.9 35 45.6 35 46.6V48.3C35 49.3 35.7 50 36.7 50Z" fill="black"/>
<path d="M11.0001 63.7C4.40012 58.7 3.00012 49.3 8.00012 42.7C8.90012 41.6 9.90012 40.6 11.0001 39.7C11.7001 39.1 11.9001 38.1 11.3001 37.4C10.8001 36.6 9.70012 36.4 9.00012 37C0.900123 43.1 -0.699876 54.6 5.30012 62.7C6.30012 64.1 7.60012 65.3 9.00012 66.4C9.70012 67 10.8001 66.8 11.3001 66.1C11.9001 65.3 11.7001 64.2 11.0001 63.7Z" fill="black"/>
<path d="M15.2004 58.7L14.9004 58.5C11.1004 55.5 10.5004 50 13.5004 46.2C13.9004 45.7 14.4004 45.2 14.9004 44.8L15.2004 44.6C15.9004 44 16.0004 43 15.5004 42.3C14.9004 41.6 13.9004 41.5 13.2004 42L12.9004 42.2C7.70045 46.4 6.90045 54 11.0004 59.2C11.6004 59.9 12.2004 60.5 12.9004 61.1L13.2004 61.3C13.9004 61.9 15.0004 61.8 15.5004 61C16.0004 60.3 15.9004 59.3 15.2004 58.7Z" fill="black"/>
<path d="M19.5002 49.5C20.2002 48.8 20.2002 47.8 19.5002 47.1C18.8002 46.4 17.8002 46.4 17.1002 47.1L16.6002 47.6C14.4002 49.8 14.4002 53.4 16.6002 55.6L17.1002 56.1C17.8002 56.8 18.8002 56.8 19.5002 56.1C20.2002 55.4 20.2002 54.4 19.5002 53.7L19.0002 53.3C18.1002 52.4 18.1002 50.9 19.0002 50L19.5002 49.5Z" fill="black"/>
<path d="M91 37C90.3 36.4 89.2 36.6 88.7 37.3C88.1 38 88.3 39.1 89 39.6C95.6 44.6 97 54 92 60.6C91.1 61.7 90.1 62.7 89 63.6C88.3 64.2 88.1 65.2 88.7 65.9C89.3 66.6 90.3 66.8 91 66.2C99.1 60.1 100.7 48.6 94.7 40.5C93.6 39.3 92.4 38 91 37Z" fill="black"/>
<path d="M87.0996 42.2L86.8996 42C86.1996 41.4 85.0996 41.5 84.5996 42.3C83.9996 43 84.0996 44.1 84.8996 44.6L85.1996 44.8C88.9996 47.8 89.5996 53.3 86.5996 57.1C86.1996 57.6 85.6996 58.1 85.1996 58.5L84.8996 58.7C84.1996 59.3 84.0996 60.3 84.5996 61C85.1996 61.7 86.1996 61.8 86.8996 61.3L87.1996 61.1C92.3996 56.9 93.1996 49.3 89.0996 44.1C88.4996 43.4 87.7996 42.8 87.0996 42.2Z" fill="black"/>
<path d="M83.3 47.6L82.8 47.1C82.1 46.4 81.1 46.4 80.4 47.1C79.7 47.8 79.7 48.8 80.4 49.5L81 50C81.9 50.9 81.9 52.4 81 53.3L80.5 53.8C79.8 54.5 79.8 55.5 80.5 56.2C81.2 56.9 82.2 56.9 82.9 56.2L83.4 55.7C85.6 53.5 85.6 49.9 83.3 47.6Z" fill="black"/>
<path d="M46.7 45C47.6 45 48.4 45.7 48.4 46.7C48.4 47.6 47.7 48.4 46.7 48.4C45.7 48.4 45 47.6 45 46.7C45 45.7 45.7 45 46.7 45Z" fill="black"/>
</svg>
