<svg width="30" height="30" viewBox="0 0 30 30" fill="none" xmlns="http://www.w3.org/2000/svg">
<path d="M1.40625 29.0625H29.0625V28.125H27.1875V27.1875H26.25V28.125H24.375V27.1875H23.4375V28.125H21.5625V27.1875H20.625V28.125H18.75V27.1875H17.8125V28.125H15.9375V27.1875H15V28.125H13.125V27.1875H12.1875V28.125H10.3125V27.1875H9.375V28.125H7.5V27.1875H6.5625V28.125H4.6875V27.1875H3.75V28.125H1.875V26.25H2.8125V25.3125H1.875V23.4375H2.8125V22.5H1.875V20.625H2.8125V19.6875H1.875V17.8125H2.8125V16.875H1.875V15H2.8125V14.0625H1.875V12.1875H2.8125V11.25H1.875V9.375H2.8125V8.4375H1.875V6.5625H2.8125V5.625H1.875V3.75H2.8125V2.8125H1.875V0.9375H0.9375V28.5938C0.9375 28.8525 1.1475 29.0625 1.40625 29.0625Z" fill="#3B3B3A"/>
<path d="M27.0502 1.07496C26.8669 0.89168 26.5707 0.89168 26.3874 1.07496L24.0436 3.41871L24.7065 4.08152L26.235 2.55293C26.2046 3.33527 26.1249 4.05434 26.0021 4.71293C25.3454 4.83012 24.8438 5.4034 24.8438 6.09387C24.8438 6.47449 24.9971 6.81902 25.2432 7.07215C25.1672 7.21746 25.088 7.35809 25.0027 7.4898C24.4069 8.41512 23.4647 9.26027 22.2075 10.0079C22.0135 9.90668 21.7965 9.84387 21.5625 9.84387C20.8627 9.84387 20.2852 10.359 20.1788 11.0293C19.9032 11.147 19.6069 11.2646 19.2666 11.3917C18.3225 11.7432 17.3363 12.0493 16.3829 12.3451C15.849 12.5106 15.3169 12.6817 14.7863 12.8561C14.5379 12.4567 14.0982 12.1876 13.5938 12.1876C12.8185 12.1876 12.1875 12.8186 12.1875 13.5939C12.1875 13.675 12.1983 13.7532 12.2115 13.8306C10.3238 14.6884 8.65271 15.9053 7.33786 17.38C7.23896 17.3575 7.13677 17.3439 7.0313 17.3439C6.25599 17.3439 5.62505 17.9748 5.62505 18.7501C5.62505 19.0089 5.70052 19.2489 5.82286 19.4575C4.83942 21.1487 4.32567 22.9646 4.30786 24.8631L5.24536 24.872C5.2613 23.1906 5.70427 21.5772 6.55317 20.0673C6.70317 20.1217 6.86255 20.1564 7.0313 20.1564C7.80661 20.1564 8.43755 19.5254 8.43755 18.7501C8.43755 18.4257 8.32271 18.1309 8.13802 17.8928C9.36849 16.5451 10.9224 15.4342 12.675 14.6495C12.9216 14.8651 13.2408 15.0001 13.5938 15.0001C14.3063 15.0001 14.8899 14.4657 14.9813 13.7781C15.5391 13.5939 16.0988 13.4153 16.6604 13.2409C17.626 12.9409 18.6244 12.6311 19.5938 12.2706C19.8741 12.1656 20.1244 12.0671 20.3607 11.9696C20.6068 12.3789 21.0511 12.6564 21.5625 12.6564C22.3379 12.6564 22.9688 12.0254 22.9688 11.2501C22.9688 11.0589 22.9299 10.8765 22.86 10.7101C24.1575 9.91184 25.1443 9.00199 25.7902 7.99887C25.8952 7.83621 25.9922 7.6623 26.085 7.48371C26.1399 7.4898 26.1938 7.50012 26.25 7.50012C27.0254 7.50012 27.6563 6.86918 27.6563 6.09387C27.6563 5.56465 27.3591 5.10855 26.9265 4.86855C27.0591 4.15137 27.1454 3.3723 27.1758 2.52621L28.7311 4.08152L29.394 3.41871L27.0502 1.07496ZM7.0313 19.2189C6.77302 19.2189 6.56255 19.0084 6.56255 18.7501C6.56255 18.4918 6.77302 18.2814 7.0313 18.2814C7.28958 18.2814 7.50005 18.4918 7.50005 18.7501C7.50005 19.0084 7.28958 19.2189 7.0313 19.2189ZM13.5938 14.0626C13.3355 14.0626 13.125 13.8521 13.125 13.5939C13.125 13.3356 13.3355 13.1251 13.5938 13.1251C13.8521 13.1251 14.0625 13.3356 14.0625 13.5939C14.0625 13.8521 13.8521 14.0626 13.5938 14.0626ZM21.5625 11.7189C21.3043 11.7189 21.0938 11.5084 21.0938 11.2501C21.0938 10.9918 21.3043 10.7814 21.5625 10.7814C21.8208 10.7814 22.0313 10.9918 22.0313 11.2501C22.0313 11.5084 21.8208 11.7189 21.5625 11.7189ZM26.25 6.56262C25.9918 6.56262 25.7813 6.35215 25.7813 6.09387C25.7813 5.83559 25.9918 5.62512 26.25 5.62512C26.5083 5.62512 26.7188 5.83559 26.7188 6.09387C26.7188 6.35215 26.5083 6.56262 26.25 6.56262Z" fill="#3B3B3A"/>
<path d="M8.4375 22.0312C8.4375 22.8066 9.06844 23.4375 9.84375 23.4375C10.6191 23.4375 11.25 22.8066 11.25 22.0312C11.25 21.2559 10.6191 20.625 9.84375 20.625C9.06844 20.625 8.4375 21.2559 8.4375 22.0312ZM10.3125 22.0312C10.3125 22.2895 10.102 22.5 9.84375 22.5C9.58547 22.5 9.375 22.2895 9.375 22.0312C9.375 21.773 9.58547 21.5625 9.84375 21.5625C10.102 21.5625 10.3125 21.773 10.3125 22.0312Z" fill="#3B3B3A"/>
<path d="M6.5625 15.4688C6.5625 14.6934 5.93156 14.0625 5.15625 14.0625C4.38094 14.0625 3.75 14.6934 3.75 15.4688C3.75 16.2441 4.38094 16.875 5.15625 16.875C5.93156 16.875 6.5625 16.2441 6.5625 15.4688ZM5.15625 15.9375C4.89797 15.9375 4.6875 15.727 4.6875 15.4688C4.6875 15.2105 4.89797 15 5.15625 15C5.41453 15 5.625 15.2105 5.625 15.4688C5.625 15.727 5.41453 15.9375 5.15625 15.9375Z" fill="#3B3B3A"/>
<path d="M12.6562 17.3438C12.6562 18.1191 13.2872 18.75 14.0625 18.75C14.8378 18.75 15.4688 18.1191 15.4688 17.3438C15.4688 16.5684 14.8378 15.9375 14.0625 15.9375C13.2872 15.9375 12.6562 16.5684 12.6562 17.3438ZM14.5312 17.3438C14.5312 17.602 14.3208 17.8125 14.0625 17.8125C13.8042 17.8125 13.5938 17.602 13.5938 17.3438C13.5938 17.0855 13.8042 16.875 14.0625 16.875C14.3208 16.875 14.5312 17.0855 14.5312 17.3438Z" fill="#3B3B3A"/>
<path d="M18.75 15.4688C18.75 16.2441 19.3809 16.875 20.1562 16.875C20.9316 16.875 21.5625 16.2441 21.5625 15.4688C21.5625 14.6934 20.9316 14.0625 20.1562 14.0625C19.3809 14.0625 18.75 14.6934 18.75 15.4688ZM20.625 15.4688C20.625 15.727 20.4145 15.9375 20.1562 15.9375C19.898 15.9375 19.6875 15.727 19.6875 15.4688C19.6875 15.2105 19.898 15 20.1562 15C20.4145 15 20.625 15.2105 20.625 15.4688Z" fill="#3B3B3A"/>
<path d="M14.5312 9.375C14.5312 8.59969 13.9003 7.96875 13.125 7.96875C12.3497 7.96875 11.7188 8.59969 11.7188 9.375C11.7188 10.1503 12.3497 10.7812 13.125 10.7812C13.9003 10.7812 14.5312 10.1503 14.5312 9.375ZM12.6562 9.375C12.6562 9.11672 12.8667 8.90625 13.125 8.90625C13.3833 8.90625 13.5938 9.11672 13.5938 9.375C13.5938 9.63328 13.3833 9.84375 13.125 9.84375C12.8667 9.84375 12.6562 9.63328 12.6562 9.375Z" fill="#3B3B3A"/>
<path d="M27.6562 10.3125C26.8809 10.3125 26.25 10.9434 26.25 11.7188C26.25 12.4941 26.8809 13.125 27.6562 13.125C28.4316 13.125 29.0625 12.4941 29.0625 11.7188C29.0625 10.9434 28.4316 10.3125 27.6562 10.3125ZM27.6562 12.1875C27.398 12.1875 27.1875 11.977 27.1875 11.7188C27.1875 11.4605 27.398 11.25 27.6562 11.25C27.9145 11.25 28.125 11.4605 28.125 11.7188C28.125 11.977 27.9145 12.1875 27.6562 12.1875Z" fill="#3B3B3A"/>
<path d="M19.6875 6.5625C19.6875 7.33781 20.3184 7.96875 21.0938 7.96875C21.8691 7.96875 22.5 7.33781 22.5 6.5625C22.5 5.78719 21.8691 5.15625 21.0938 5.15625C20.3184 5.15625 19.6875 5.78719 19.6875 6.5625ZM21.5625 6.5625C21.5625 6.82078 21.352 7.03125 21.0938 7.03125C20.8355 7.03125 20.625 6.82078 20.625 6.5625C20.625 6.30422 20.8355 6.09375 21.0938 6.09375C21.352 6.09375 21.5625 6.30422 21.5625 6.5625Z" fill="#3B3B3A"/>
<path d="M18.75 9.375C18.75 8.59969 18.1191 7.96875 17.3438 7.96875C16.5684 7.96875 15.9375 8.59969 15.9375 9.375C15.9375 10.1503 16.5684 10.7812 17.3438 10.7812C18.1191 10.7812 18.75 10.1503 18.75 9.375ZM16.875 9.375C16.875 9.11672 17.0855 8.90625 17.3438 8.90625C17.602 8.90625 17.8125 9.11672 17.8125 9.375C17.8125 9.63328 17.602 9.84375 17.3438 9.84375C17.0855 9.84375 16.875 9.63328 16.875 9.375Z" fill="#3B3B3A"/>
<path d="M23.9062 2.34375C23.9062 1.56844 23.2753 0.9375 22.5 0.9375C21.7247 0.9375 21.0938 1.56844 21.0938 2.34375C21.0938 3.11906 21.7247 3.75 22.5 3.75C23.2753 3.75 23.9062 3.11906 23.9062 2.34375ZM22.0312 2.34375C22.0312 2.08547 22.2417 1.875 22.5 1.875C22.7583 1.875 22.9688 2.08547 22.9688 2.34375C22.9688 2.60203 22.7583 2.8125 22.5 2.8125C22.2417 2.8125 22.0312 2.60203 22.0312 2.34375Z" fill="#3B3B3A"/>
<path d="M10.7812 13.125C10.7812 12.3497 10.1503 11.7188 9.375 11.7188C8.59969 11.7188 7.96875 12.3497 7.96875 13.125C7.96875 13.9003 8.59969 14.5312 9.375 14.5312C10.1503 14.5312 10.7812 13.9003 10.7812 13.125ZM8.90625 13.125C8.90625 12.8667 9.11672 12.6562 9.375 12.6562C9.63328 12.6562 9.84375 12.8667 9.84375 13.125C9.84375 13.3833 9.63328 13.5938 9.375 13.5938C9.11672 13.5938 8.90625 13.3833 8.90625 13.125Z" fill="#3B3B3A"/>
</svg>
