<svg width="31" height="30" viewBox="0 0 31 30" fill="none" xmlns="http://www.w3.org/2000/svg">
<path d="M20.1875 7.96875C20.1875 6.67641 19.1361 5.625 17.8438 5.625H17.5906C18.0378 5.12672 18.3125 4.47094 18.3125 3.75C18.3125 2.19891 17.0511 0.9375 15.5 0.9375C13.9489 0.9375 12.6875 2.19891 12.6875 3.75C12.6875 4.47094 12.9622 5.12672 13.4094 5.625H13.1562C11.8639 5.625 10.8125 6.67641 10.8125 7.96875V11.25C10.8125 11.5092 11.0225 11.7188 11.2812 11.7188H12.6875V17.3438C12.6875 17.603 12.8975 17.8125 13.1562 17.8125H15.5H17.8438C18.1025 17.8125 18.3125 17.603 18.3125 17.3438V11.7188H19.7188C19.9775 11.7188 20.1875 11.5092 20.1875 11.25V7.96875ZM13.625 3.75C13.625 2.71594 14.4659 1.875 15.5 1.875C16.5341 1.875 17.375 2.71594 17.375 3.75C17.375 4.78406 16.5341 5.625 15.5 5.625C14.4659 5.625 13.625 4.78406 13.625 3.75ZM19.25 10.7812H18.3125V7.96875H17.375V16.875H15.9688V11.7188H15.0312V16.875H13.625V7.96875H12.6875V10.7812H11.75V7.96875C11.75 7.19344 12.3809 6.5625 13.1562 6.5625H17.8438C18.6191 6.5625 19.25 7.19344 19.25 7.96875V10.7812Z" fill="black"/>
<path d="M1.90625 22.9688H3.3125V28.5938C3.3125 28.853 3.5225 29.0625 3.78125 29.0625H6.125H8.46875C8.7275 29.0625 8.9375 28.853 8.9375 28.5938V22.9688H10.3438C10.6025 22.9688 10.8125 22.7592 10.8125 22.5V19.2188C10.8125 17.9264 9.76109 16.875 8.46875 16.875H8.21562C8.66281 16.3767 8.9375 15.7209 8.9375 15C8.9375 13.4489 7.67609 12.1875 6.125 12.1875C4.57391 12.1875 3.3125 13.4489 3.3125 15C3.3125 15.7209 3.58719 16.3767 4.03437 16.875H3.78125C2.48891 16.875 1.4375 17.9264 1.4375 19.2188V22.5C1.4375 22.7592 1.6475 22.9688 1.90625 22.9688ZM4.25 15C4.25 13.9659 5.09094 13.125 6.125 13.125C7.15906 13.125 8 13.9659 8 15C8 16.0341 7.15906 16.875 6.125 16.875C5.09094 16.875 4.25 16.0341 4.25 15ZM2.375 19.2188C2.375 18.4434 3.00594 17.8125 3.78125 17.8125H8.46875C9.24406 17.8125 9.875 18.4434 9.875 19.2188V22.0312H8.9375V19.2188H8V28.125H6.59375V22.9688H5.65625V28.125H4.25V19.2188H3.3125V22.0312H2.375V19.2188Z" fill="black"/>
<path d="M27.2188 16.875H26.9656C27.4128 16.3767 27.6875 15.7209 27.6875 15C27.6875 13.4489 26.4261 12.1875 24.875 12.1875C23.3239 12.1875 22.0625 13.4489 22.0625 15C22.0625 15.7209 22.3372 16.3767 22.7844 16.875H22.5312C21.2389 16.875 20.1875 17.9264 20.1875 19.2188V22.5C20.1875 22.7592 20.3975 22.9688 20.6562 22.9688H22.0625V28.5938C22.0625 28.853 22.2725 29.0625 22.5312 29.0625H24.875H27.2188C27.4775 29.0625 27.6875 28.853 27.6875 28.5938V22.9688H29.0938C29.3525 22.9688 29.5625 22.7592 29.5625 22.5V19.2188C29.5625 17.9264 28.5111 16.875 27.2188 16.875ZM23 15C23 13.9659 23.8409 13.125 24.875 13.125C25.9091 13.125 26.75 13.9659 26.75 15C26.75 16.0341 25.9091 16.875 24.875 16.875C23.8409 16.875 23 16.0341 23 15ZM28.625 22.0312H27.6875V19.2188H26.75V28.125H25.3438V22.9688H24.4062V28.125H23V19.2188H22.0625V22.0312H21.125V19.2188C21.125 18.4434 21.7559 17.8125 22.5312 17.8125H27.2188C27.9941 17.8125 28.625 18.4434 28.625 19.2188V22.0312Z" fill="black"/>
<path d="M28.1563 0.9375H20.1876C19.9982 0.9375 19.8271 1.05141 19.7545 1.22672C19.6818 1.40203 19.7221 1.60359 19.8562 1.73766L22.0626 3.94406V6.09375C22.0626 6.86906 22.6935 7.5 23.4688 7.5H28.1563C28.9317 7.5 29.5626 6.86906 29.5626 6.09375V2.34375C29.5626 1.56844 28.9317 0.9375 28.1563 0.9375ZM28.6251 6.09375C28.6251 6.3525 28.4146 6.5625 28.1563 6.5625H23.4688C23.2106 6.5625 23.0001 6.3525 23.0001 6.09375V3.75C23.0001 3.62531 22.9509 3.50625 22.8627 3.41859L21.3192 1.875H28.1563C28.4146 1.875 28.6251 2.085 28.6251 2.34375V6.09375Z" fill="black"/>
<path d="M21.5581 25.9608C21.6308 25.7855 21.5905 25.5839 21.4564 25.4498L19.25 23.2434V21.0938C19.25 20.3184 18.6191 19.6875 17.8438 19.6875H13.1562C12.3809 19.6875 11.75 20.3184 11.75 21.0938V24.8438C11.75 25.6191 12.3809 26.25 13.1562 26.25H21.125C21.3144 26.25 21.4855 26.1361 21.5581 25.9608ZM13.1562 25.3125C12.898 25.3125 12.6875 25.1025 12.6875 24.8438V21.0938C12.6875 20.835 12.898 20.625 13.1562 20.625H17.8438C18.102 20.625 18.3125 20.835 18.3125 21.0938V23.4375C18.3125 23.5622 18.3617 23.6813 18.4498 23.7689L19.9934 25.3125H13.1562Z" fill="black"/>
<path d="M2.84375 7.5H3.58719L5.32484 9.23766C5.41625 9.32906 5.53625 9.375 5.65625 9.375C5.77625 9.375 5.89625 9.32906 5.98766 9.23766L7.72531 7.5H8.46875C9.24406 7.5 9.875 6.86906 9.875 6.09375V2.34375C9.875 1.56844 9.24406 0.9375 8.46875 0.9375H2.84375C2.06844 0.9375 1.4375 1.56844 1.4375 2.34375V6.09375C1.4375 6.86906 2.06844 7.5 2.84375 7.5ZM2.375 2.34375C2.375 2.085 2.58547 1.875 2.84375 1.875H8.46875C8.72703 1.875 8.9375 2.085 8.9375 2.34375V6.09375C8.9375 6.3525 8.72703 6.5625 8.46875 6.5625H7.53125C7.40703 6.5625 7.2875 6.61172 7.19984 6.69984L5.65625 8.24344L4.11266 6.69984C4.025 6.61172 3.90547 6.5625 3.78125 6.5625H2.84375C2.58547 6.5625 2.375 6.3525 2.375 6.09375V2.34375Z" fill="black"/>
<path d="M17.375 21.5625H13.625V22.5H17.375V21.5625Z" fill="black"/>
<path d="M17.375 23.4375H13.625V24.375H17.375V23.4375Z" fill="black"/>
<path d="M7.53125 2.8125H3.78125V3.75H7.53125V2.8125Z" fill="black"/>
<path d="M7.53125 4.6875H3.78125V5.625H7.53125V4.6875Z" fill="black"/>
<path d="M27.6875 2.8125H23.9375V3.75H27.6875V2.8125Z" fill="black"/>
<path d="M27.6875 4.6875H23.9375V5.625H27.6875V4.6875Z" fill="black"/>
</svg>
