<svg width="28" height="28" viewBox="0 0 28 28" fill="none" xmlns="http://www.w3.org/2000/svg">
<path d="M6.5 9.3125C6.5 10.8636 7.76141 12.125 9.3125 12.125C10.8636 12.125 12.125 10.8636 12.125 9.3125C12.125 7.76141 10.8636 6.5 9.3125 6.5C7.76141 6.5 6.5 7.76141 6.5 9.3125ZM11.1875 9.3125C11.1875 10.3466 10.3466 11.1875 9.3125 11.1875C8.27844 11.1875 7.4375 10.3466 7.4375 9.3125C7.4375 8.27844 8.27844 7.4375 9.3125 7.4375C10.3466 7.4375 11.1875 8.27844 11.1875 9.3125Z" fill="black"/>
<path d="M8.375 15.875H8.84375V19.625H9.78125V15.875H10.25V14.9375H8.375V15.875Z" fill="black"/>
<path d="M25.2501 0.875H15.4064C14.3723 0.875 13.5314 1.71594 13.5314 2.75V12.0167L11.0915 13.0625H7.60733L5.0203 10.9067L3.65764 7.27297C3.57373 7.04938 3.33514 6.92563 3.10498 6.98281L1.22998 7.45156C1.10342 7.48297 0.995608 7.56641 0.932796 7.68078C0.869983 7.79562 0.857796 7.93062 0.899046 8.05484L2.3053 12.2736C2.32826 12.3425 2.36717 12.4053 2.41873 12.4569L6.03139 16.0691V19.7886C5.23686 20.0712 4.6017 20.7055 4.31905 21.5178C2.91186 21.6706 1.81264 22.865 1.81264 24.3125C1.81264 24.7977 1.93592 25.2542 2.15295 25.6531L1.48123 26.3248C1.39311 26.4125 1.34389 26.532 1.34389 26.6562V27.125H2.28139V26.8503L2.73889 26.3928C3.23858 26.8461 3.89905 27.125 4.62514 27.125C5.60295 27.125 6.46451 26.623 6.96889 25.8641C7.47326 26.6234 8.33483 27.125 9.31264 27.125C10.2905 27.125 11.152 26.623 11.6564 25.8641C12.1608 26.6234 13.0223 27.125 14.0001 27.125C14.978 27.125 15.8395 26.623 16.3439 25.8641C16.8483 26.6234 17.7098 27.125 18.6876 27.125C19.6655 27.125 20.527 26.623 21.0314 25.8641C21.5358 26.6234 22.3973 27.125 23.3751 27.125C24.1012 27.125 24.7617 26.8461 25.2614 26.3928L25.7189 26.8503V27.125H26.6564V26.6562C26.6564 26.532 26.6072 26.4125 26.519 26.3248L25.8473 25.6531C26.0644 25.2542 26.1876 24.7977 26.1876 24.3125C26.1876 22.8167 25.013 21.5933 23.5383 21.5084C23.1478 20.3994 22.0931 19.625 20.8908 19.625C19.9392 19.625 19.0828 20.113 18.5705 20.8634C18.0586 20.113 17.2017 19.625 16.2501 19.625C15.2986 19.625 14.4422 20.113 13.9298 20.8639C13.6031 20.3848 13.1386 20.0117 12.5939 19.8069V16.1652L13.6669 15.6284C13.943 16.3203 14.617 16.8125 15.4064 16.8125H25.2501C26.2842 16.8125 27.1251 15.9716 27.1251 14.9375V2.75C27.1251 1.71594 26.2842 0.875 25.2501 0.875ZM6.96889 20.5625C7.68373 20.5625 8.31795 20.9745 8.63248 21.5867C7.94248 21.7592 7.35186 22.1844 6.96889 22.7609C6.58592 22.1844 5.9953 21.7587 5.3053 21.5862C5.61983 20.9745 6.25405 20.5625 6.96889 20.5625ZM4.62514 26.1875C3.59108 26.1875 2.75014 25.3466 2.75014 24.3125C2.75014 23.2784 3.59108 22.4375 4.62514 22.4375C5.6592 22.4375 6.50014 23.2784 6.50014 24.3125C6.50014 25.3466 5.6592 26.1875 4.62514 26.1875ZM9.31264 26.1875C8.27858 26.1875 7.43764 25.3466 7.43764 24.3125C7.43764 23.2784 8.27858 22.4375 9.31264 22.4375C10.3467 22.4375 11.1876 23.2784 11.1876 24.3125C11.1876 25.3466 10.3467 26.1875 9.31264 26.1875ZM14.0001 26.1875C12.9661 26.1875 12.1251 25.3466 12.1251 24.3125C12.1251 23.2784 12.9661 22.4375 14.0001 22.4375C15.0342 22.4375 15.8751 23.2784 15.8751 24.3125C15.8751 25.3466 15.0342 26.1875 14.0001 26.1875ZM18.6876 26.1875C17.6536 26.1875 16.8126 25.3466 16.8126 24.3125C16.8126 23.2784 17.6536 22.4375 18.6876 22.4375C19.7217 22.4375 20.5626 23.2784 20.5626 24.3125C20.5626 25.3466 19.7217 26.1875 18.6876 26.1875ZM25.2501 24.3125C25.2501 25.3466 24.4092 26.1875 23.3751 26.1875C22.3411 26.1875 21.5001 25.3466 21.5001 24.3125C21.5001 23.2784 22.3411 22.4375 23.3751 22.4375C24.4092 22.4375 25.2501 23.2784 25.2501 24.3125ZM20.8908 20.5625C21.6183 20.5625 22.2619 20.9886 22.5708 21.6186C21.9337 21.8094 21.3914 22.2191 21.0314 22.7609C20.625 22.1492 19.987 21.7048 19.2426 21.5553C19.5628 20.9605 20.1881 20.5625 20.8908 20.5625ZM16.2501 20.5625C16.9734 20.5625 17.6142 20.9839 17.9245 21.6078C17.2701 21.793 16.7114 22.2073 16.3439 22.7609C15.9455 22.1609 15.3234 21.7227 14.5973 21.5652C14.9156 20.9647 15.5437 20.5625 16.2501 20.5625ZM13.2783 21.5975C12.6061 21.7766 12.0314 22.1961 11.6564 22.7614C11.2655 22.1731 10.6594 21.7414 9.95108 21.5764C10.268 20.9694 10.8989 20.5625 11.6095 20.5625C12.3286 20.5625 12.9656 20.9792 13.2783 21.5975ZM11.9156 15.4555C11.7567 15.5352 11.6564 15.6973 11.6564 15.875V19.6292C11.6405 19.6287 11.6255 19.625 11.6095 19.625C10.658 19.625 9.80155 20.113 9.2892 20.8639C8.77686 20.113 7.92045 19.625 6.96889 19.625V15.875C6.96889 15.7508 6.91967 15.6312 6.83155 15.5436L3.15983 11.8719L1.94858 8.23813L2.92686 7.99391L4.18639 11.3525C4.21498 11.4289 4.2628 11.4959 4.32514 11.548L7.13764 13.8917C7.22202 13.9616 7.32795 14 7.43764 14H11.1876C11.2509 14 11.3142 13.9873 11.3723 13.962L14.6536 12.5558C14.6972 12.537 14.738 12.5117 14.774 12.4808L17.7258 9.95094L18.4936 10.7188L15.5976 13.6147L11.9156 15.4555ZM26.1876 14.9375C26.1876 15.4545 25.7672 15.875 25.2501 15.875H15.4064C14.9831 15.875 14.6287 15.5914 14.5125 15.2056L16.0847 14.4195C16.1297 14.397 16.1709 14.3675 16.2065 14.3314L19.4878 11.0502C19.6711 10.8669 19.6711 10.5706 19.4878 10.3873L18.0815 8.98109C17.9076 8.80719 17.6311 8.79734 17.445 8.95672L14.4689 11.5077V2.75C14.4689 2.23297 14.8894 1.8125 15.4064 1.8125H25.2501C25.7672 1.8125 26.1876 2.23297 26.1876 2.75V14.9375Z" fill="black"/>
<path d="M24.7814 3.21875H20.0939C19.8352 3.21875 19.6252 3.42875 19.6252 3.6875V5.5625C19.6252 5.82125 19.8352 6.03125 20.0939 6.03125H21.9689V7.20312L20.2814 8.46875C20.1633 8.55734 20.0939 8.69609 20.0939 8.84375C20.0939 8.99141 20.1633 9.13016 20.2814 9.21875L21.9689 10.4844V11.6562H20.5627C20.385 11.6562 20.2228 11.7566 20.1432 11.9155L19.2057 13.7905C19.133 13.9358 19.141 14.1083 19.2263 14.2466C19.3121 14.3844 19.4625 14.4688 19.6252 14.4688H23.8439C24.0216 14.4688 24.1838 14.3684 24.2635 14.2095L25.201 12.3345C25.2736 12.1892 25.2657 12.0167 25.1803 11.8784C25.0946 11.7406 24.9441 11.6562 24.7814 11.6562H22.9064V10.4844L24.5939 9.21875C24.7121 9.13062 24.7814 8.99141 24.7814 8.84375C24.7814 8.69609 24.7121 8.55734 24.5939 8.46875L22.9064 7.20312V6.03125H24.7814C25.0402 6.03125 25.2502 5.82125 25.2502 5.5625V3.6875C25.2502 3.42875 25.0402 3.21875 24.7814 3.21875ZM23.5543 13.5312H20.3836L20.8524 12.5938H24.023L23.5543 13.5312ZM22.4377 9.66406L21.3441 8.84375L22.4377 8.02344L23.5313 8.84375L22.4377 9.66406ZM24.3127 5.09375H20.5627V4.15625H24.3127V5.09375Z" fill="black"/>
<path d="M3.6875 5.5625H3.92188L5.1875 7.25C5.2775 7.37 5.41766 7.4375 5.5625 7.4375C5.61172 7.4375 5.66188 7.42953 5.71062 7.41359C5.90234 7.34937 6.03125 7.17078 6.03125 6.96875V5.5625H8.84375C9.61906 5.5625 10.25 4.93156 10.25 4.15625V2.28125C10.25 1.50594 9.61906 0.875 8.84375 0.875H3.6875C2.91219 0.875 2.28125 1.50594 2.28125 2.28125V4.15625C2.28125 4.93156 2.91219 5.5625 3.6875 5.5625ZM3.21875 2.28125C3.21875 2.02297 3.42922 1.8125 3.6875 1.8125H8.84375C9.10203 1.8125 9.3125 2.02297 9.3125 2.28125V4.15625C9.3125 4.41453 9.10203 4.625 8.84375 4.625H5.5625C5.30375 4.625 5.09375 4.835 5.09375 5.09375V5.5625L4.53125 4.8125C4.44266 4.69437 4.30391 4.625 4.15625 4.625H3.6875C3.42922 4.625 3.21875 4.41453 3.21875 4.15625V2.28125Z" fill="black"/>
<path d="M8.375 2.75H4.15625V3.6875H8.375V2.75Z" fill="black"/>
<path d="M18.6875 3.21875H15.4062V4.15625H18.6875V3.21875Z" fill="black"/>
<path d="M18.6875 5.09375H15.4062V6.03125H18.6875V5.09375Z" fill="black"/>
<path d="M18.6875 6.96875H15.4062V7.90625H18.6875V6.96875Z" fill="black"/>
<path d="M27.125 17.75H26.1875V18.6875H27.125V17.75Z" fill="black"/>
<path d="M25.25 17.75H24.3125V18.6875H25.25V17.75Z" fill="black"/>
<path d="M23.375 17.75H22.4375V18.6875H23.375V17.75Z" fill="black"/>
</svg>
