<svg width="20" height="21" viewBox="0 0 20 21" fill="none" xmlns="http://www.w3.org/2000/svg">
<path d="M10.2317 15.1953H10.6862V19.2544H10.2317V15.1953Z" fill="black" stroke="#404040" stroke-width="0.454543"/>
<path d="M10.2317 7.07273H10.6862V10.2273H10.2317V7.07273Z" fill="black" stroke="#404040" stroke-width="0.454543"/>
<path d="M10.2317 1.65891H10.6862V3.0089H10.2317V1.65891Z" fill="black" stroke="#404040" stroke-width="0.454543"/>
<path d="M4.20797 5.91962L4.43179 5.95905L4.41286 6.18553C5.37267 6.26576 6.2679 6.70159 6.92306 7.40758C7.57801 8.11333 7.94583 9.03818 7.9545 10.0009C7.95417 11.826 7.07873 13.4175 6.16243 14.579C5.70568 15.1581 5.24296 15.6249 4.88345 15.9539C4.70381 16.1183 4.5504 16.248 4.43702 16.3396C4.38032 16.3854 4.33386 16.4215 4.29937 16.4476C4.28211 16.4607 4.2681 16.471 4.2575 16.4787L4.24475 16.4877L4.24101 16.4903L4.24023 16.4908C4.23986 16.4911 4.2397 16.4912 4.23975 16.4912L4.23955 16.4909L4.22921 16.4984L4.09088 16.5999L3.95577 16.5008C3.58002 16.2045 3.22401 15.884 2.89001 15.5413L2.57978 15.223L2.50337 15.6608L1.63318 20.647L1.17252 20.5687L2.17382 14.8756L2.19171 14.7739L2.12687 14.6936C1.1726 13.5108 0.22764 11.8886 0.227271 10.001C0.236458 9.07913 0.57501 8.19089 1.1818 7.49674C1.78883 6.80231 2.62426 6.34796 3.53709 6.2158L3.70022 6.19218L3.72844 6.02978L4.73058 0.262008L5.19101 0.340282L4.20797 5.91962ZM3.94322 15.909L4.09047 16.0349L4.23808 15.9094C4.65585 15.5543 5.46704 14.8001 6.17538 13.7783C6.88265 12.7579 7.49995 11.4525 7.49995 9.99994C7.49995 9.0958 7.14078 8.22869 6.50146 7.58936C5.86214 6.95004 4.99503 6.59087 4.09088 6.59087C3.18674 6.59087 2.31963 6.95004 1.68031 7.58936C1.04098 8.22869 0.681814 9.0958 0.681814 9.99994C0.681814 11.4526 1.30034 12.7581 2.00814 13.7783C2.71704 14.8002 3.52816 15.5543 3.94322 15.909Z" fill="black" stroke="#404040" stroke-width="0.454543"/>
<path d="M2.95469 8.29929C3.29106 8.07453 3.68652 7.95457 4.09107 7.95457C4.63356 7.95457 5.15382 8.17007 5.53742 8.55366C5.92101 8.93726 6.13652 9.45752 6.13652 10C6.13652 10.4046 6.01655 10.8 5.7918 11.1364C5.56704 11.4728 5.24759 11.7349 4.87383 11.8898C4.50007 12.0446 4.0888 12.0851 3.69203 12.0061C3.29525 11.9272 2.93079 11.7324 2.64473 11.4464C2.35867 11.1603 2.16386 10.7958 2.08493 10.3991C2.00601 10.0023 2.04652 9.59101 2.20133 9.21725C2.35615 8.8435 2.61832 8.52404 2.95469 8.29929ZM3.20722 11.3228C3.46884 11.4976 3.77642 11.5909 4.09107 11.5909C4.51301 11.5909 4.91766 11.4233 5.21601 11.1249C5.51436 10.8266 5.68197 10.4219 5.68197 10C5.68197 9.68536 5.58867 9.37777 5.41386 9.11615C5.23905 8.85453 4.99058 8.65062 4.69988 8.53021C4.40919 8.4098 4.08931 8.37829 3.7807 8.43968C3.4721 8.50106 3.18863 8.65258 2.96614 8.87507C2.74365 9.09756 2.59213 9.38103 2.53074 9.68964C2.46936 9.99824 2.50086 10.3181 2.62127 10.6088C2.74169 10.8995 2.9456 11.148 3.20722 11.3228Z" fill="black" stroke="#404040" stroke-width="0.454543"/>
<path d="M19.7369 20.5692L19.2893 20.6464L15.7314 0.339753L16.179 0.262515L19.7369 20.5692Z" fill="black" stroke="#404040" stroke-width="0.454543"/>
</svg>
