<svg width="20" height="20" viewBox="0 0 20 20" fill="none" xmlns="http://www.w3.org/2000/svg">
<path d="M0.925 10.8H8.925V18.8C8.925 19.2416 9.2834 19.6 9.725 19.6C10.1666 19.6 10.525 19.2416 10.525 18.8V10.8H18.525C18.9666 10.8 19.325 10.4416 19.325 9.99999C19.325 9.55839 18.9666 9.19999 18.525 9.19999H10.525V1.19999C10.525 0.758394 10.1666 0.399994 9.725 0.399994C9.2834 0.399994 8.925 0.758394 8.925 1.19999V9.19999H0.925C0.4834 9.19999 0.125 9.55839 0.125 9.99999C0.125 10.4416 0.4834 10.8 0.925 10.8Z" fill="black"/>
</svg>
