<svg width="19" height="18" viewBox="0 0 19 18" fill="none" xmlns="http://www.w3.org/2000/svg">
<path fill-rule="evenodd" clip-rule="evenodd" d="M17.4847 2.72732C16.2418 1.7171 13.1098 0.841777 9.57792 2.18596C7.67954 2.90846 5.86225 3.15197 4.32913 3.09111C2.80867 3.03076 1.52579 2.66872 0.723191 2.13501C0.493248 1.98211 0.430797 1.67174 0.583704 1.4418C0.736611 1.21186 1.04697 1.14941 1.27692 1.30231C1.87433 1.69958 2.95664 2.03584 4.36879 2.0919C5.76827 2.14745 7.45099 1.92547 9.22223 1.25136C13.0404 -0.201773 16.5584 0.685812 18.1155 1.9513C18.3297 2.12546 18.3623 2.44037 18.1881 2.65466C18.0139 2.86895 17.699 2.90148 17.4847 2.72732Z" fill="black"/>
<path fill-rule="evenodd" clip-rule="evenodd" d="M17.4847 7.52737C16.2418 6.51715 13.1098 5.64183 9.57792 6.98601C9.31984 7.08424 9.031 6.95464 8.93278 6.69656C8.83455 6.43848 8.96414 6.14963 9.22223 6.05141C13.0404 4.59828 16.5584 5.48586 18.1155 6.75135C18.3297 6.92551 18.3623 7.24042 18.1881 7.45471C18.0139 7.669 17.699 7.70153 17.4847 7.52737ZM0.583704 6.24185C0.736611 6.01191 1.04697 5.94945 1.27692 6.10236C1.8407 6.47727 2.83836 6.79908 4.1423 6.8804C4.4179 6.89759 4.62739 7.13495 4.6102 7.41056C4.59301 7.68616 4.35566 7.89565 4.08005 7.87846C2.67136 7.79061 1.48291 7.44026 0.723191 6.93506C0.493248 6.78215 0.430797 6.47179 0.583704 6.24185Z" fill="black"/>
<path fill-rule="evenodd" clip-rule="evenodd" d="M14.2845 10.6443C14.3293 10.3718 14.5865 10.1872 14.859 10.232C15.1874 10.2861 15.5016 10.3553 15.7993 10.4371C16.1371 10.53 16.4544 10.6393 16.7477 10.7613C17.2861 10.9853 17.7509 11.2551 18.1155 11.5515C18.3297 11.7256 18.3623 12.0405 18.1881 12.2548C18.0139 12.4691 17.699 12.5017 17.4847 12.3275C17.2087 12.1031 16.8313 11.8791 16.3636 11.6846C16.1106 11.5794 15.8333 11.4836 15.5342 11.4014C15.2708 11.3289 14.991 11.2672 14.6967 11.2188C14.4242 11.174 14.2397 10.9168 14.2845 10.6443ZM10.7017 10.8996C10.7799 11.1644 10.6286 11.4425 10.3638 11.5208C10.1044 11.5974 9.8422 11.6856 9.57792 11.7861C7.67954 12.5086 5.86225 12.7521 4.32913 12.6913C2.80867 12.6309 1.52579 12.2689 0.723191 11.7352C0.493248 11.5823 0.430797 11.2719 0.583704 11.042C0.736611 10.812 1.04697 10.7496 1.27692 10.9025C1.87433 11.2997 2.95664 11.636 4.36879 11.6921C5.76827 11.7476 7.45099 11.5256 9.22223 10.8515C9.51041 10.7419 9.79675 10.6455 10.0805 10.5617C10.3454 10.4835 10.6235 10.6348 10.7017 10.8996Z" fill="black"/>
<path fill-rule="evenodd" clip-rule="evenodd" d="M17.4847 17.1272C16.2418 16.117 13.1098 15.2417 9.57792 16.5859C7.67954 17.3084 5.86225 17.5519 4.32913 17.491C2.80867 17.4307 1.52579 17.0686 0.723191 16.5349C0.493248 16.382 0.430797 16.0716 0.583704 15.8417C0.736611 15.6118 1.04697 15.5493 1.27692 15.7022C1.87433 16.0995 2.95664 16.4357 4.36879 16.4918C5.76827 16.5474 7.45099 16.3254 9.22223 15.6513C13.0404 14.1981 16.5584 15.0857 18.1155 16.3512C18.3297 16.5254 18.3623 16.8403 18.1881 17.0546C18.0139 17.2689 17.699 17.3014 17.4847 17.1272Z" fill="black"/>
</svg>
