<svg width="17" height="17" viewBox="0 0 17 17" fill="none" xmlns="http://www.w3.org/2000/svg">
<path d="M8.5 0C3.81158 0 0 3.81158 0 8.5C0 13.1884 3.81158 17 8.5 17C13.1884 17 17 13.1884 17 8.5C17 3.81158 13.1884 0 8.5 0ZM8.5 15.7653C4.49158 15.7653 1.23474 12.5084 1.23474 8.5C1.23474 4.49158 4.49158 1.23474 8.5 1.23474C12.5084 1.23474 15.7653 4.49158 15.7653 8.5C15.7653 12.5084 12.5084 15.7653 8.5 15.7653Z" fill="#2F2FA2"/>
<path d="M5.74417 7.58721C6.34703 7.58721 6.83575 7.09849 6.83575 6.49563C6.83575 5.89277 6.34703 5.40405 5.74417 5.40405C5.1413 5.40405 4.65259 5.89277 4.65259 6.49563C4.65259 7.09849 5.1413 7.58721 5.74417 7.58721Z" fill="#2F2FA2"/>
<path d="M11.4395 7.58721C12.0423 7.58721 12.5311 7.09849 12.5311 6.49563C12.5311 5.89277 12.0423 5.40405 11.4395 5.40405C10.8366 5.40405 10.3479 5.89277 10.3479 6.49563C10.3479 7.09849 10.8366 7.58721 11.4395 7.58721Z" fill="#2F2FA2"/>
<path d="M11.5062 9.98511C11.202 9.84195 10.8262 9.96722 10.6831 10.2714C10.2715 11.1125 9.44833 11.6314 8.49991 11.6314C7.56938 11.6314 6.72833 11.1125 6.31675 10.2714C6.17359 9.96722 5.7978 9.84195 5.49359 9.98511C5.18938 10.1283 5.06412 10.5041 5.20728 10.8083C5.8157 12.0609 7.08622 12.8483 8.48201 12.8483C9.8778 12.8483 11.1662 12.0788 11.7746 10.8083C11.9357 10.5041 11.8104 10.1462 11.5062 9.98511Z" fill="#2F2FA2"/>
</svg>
