<svg width="193" height="64" viewBox="0 0 193 64" fill="none" xmlns="http://www.w3.org/2000/svg">
<g clip-path="url(#clip0_803_39277)">
<path d="M192.68 0.320923H0.322266V63.6812H192.68V0.320923Z" fill="white"/>
<path d="M0 0.000610352V63.9999H193V0.000610352H0ZM128.667 62.7219H1.28683V1.28078H128.667V62.7219ZM191.713 62.7219H129.954V1.28078H191.713V62.7219Z" fill="black"/>
<path d="M110.198 21.6751V35.7727C110.198 35.9556 110.076 36.0143 109.983 35.8337L101.903 21.5554C101.854 21.4804 101.786 21.4187 101.707 21.3761C101.628 21.3335 101.539 21.3114 101.449 21.3116H97.9766C97.928 21.3097 97.8796 21.3178 97.8343 21.3354C97.7889 21.3529 97.7478 21.3796 97.7133 21.4137C97.6788 21.4478 97.6517 21.4886 97.6338 21.5336C97.6158 21.5786 97.6074 21.6267 97.609 21.6751V42.2571C97.6071 42.3056 97.6153 42.354 97.6331 42.3993C97.6509 42.4445 97.6779 42.4856 97.7124 42.52C97.7469 42.5543 97.7882 42.5812 97.8337 42.5989C97.8792 42.6166 97.9278 42.6248 97.9766 42.6229H100.977C101.026 42.6248 101.074 42.6166 101.12 42.5989C101.165 42.5812 101.207 42.5543 101.241 42.52C101.276 42.4856 101.303 42.4445 101.321 42.3993C101.338 42.354 101.347 42.3056 101.345 42.2571V28.1911C101.345 28.0082 101.467 27.9472 101.56 28.1301L109.647 42.379C109.696 42.4541 109.763 42.5157 109.842 42.5583C109.922 42.6009 110.01 42.6231 110.101 42.6229H113.568C113.617 42.6244 113.666 42.616 113.711 42.5982C113.756 42.5804 113.797 42.5535 113.832 42.5192C113.866 42.4849 113.893 42.444 113.911 42.3989C113.929 42.3538 113.938 42.3056 113.936 42.2571V21.6751C113.938 21.6266 113.929 21.5784 113.911 21.5333C113.893 21.4882 113.866 21.4473 113.832 21.413C113.797 21.3787 113.756 21.3518 113.711 21.334C113.666 21.3162 113.617 21.3078 113.568 21.3093H110.566C110.517 21.3074 110.468 21.3156 110.423 21.3333C110.377 21.351 110.336 21.3779 110.302 21.4122C110.267 21.4466 110.24 21.4877 110.222 21.5329C110.204 21.5781 110.196 21.6266 110.198 21.6751ZM88.5558 42.6229H91.5879C91.6367 42.6248 91.6853 42.6166 91.7308 42.5989C91.7763 42.5812 91.8176 42.5543 91.8521 42.52C91.8866 42.4856 91.9137 42.4445 91.9314 42.3993C91.9492 42.354 91.9575 42.3056 91.9555 42.2571V21.6751C91.9575 21.6266 91.9492 21.5781 91.9314 21.5329C91.9137 21.4877 91.8866 21.4466 91.8521 21.4122C91.8176 21.3779 91.7763 21.351 91.7308 21.3333C91.6853 21.3156 91.6367 21.3074 91.5879 21.3093H88.5558C88.507 21.3078 88.4585 21.3162 88.4132 21.334C88.3679 21.3518 88.3267 21.3787 88.2923 21.413C88.2578 21.4473 88.2308 21.4882 88.2129 21.5333C88.1949 21.5784 88.1865 21.6266 88.1881 21.6751V42.2571C88.1865 42.3056 88.1949 42.3538 88.2129 42.3989C88.2308 42.444 88.2578 42.4849 88.2923 42.5192C88.3267 42.5535 88.3679 42.5804 88.4132 42.5982C88.4585 42.616 88.507 42.6244 88.5558 42.6229ZM76.4636 38.9088V21.6751C76.4652 21.6266 76.4568 21.5784 76.4388 21.5333C76.4209 21.4882 76.3939 21.4473 76.3594 21.413C76.325 21.3787 76.2838 21.3518 76.2385 21.334C76.1932 21.3162 76.1447 21.3078 76.0959 21.3093H73.0638C73.015 21.3074 72.9664 21.3156 72.9209 21.3333C72.8754 21.351 72.8341 21.3779 72.7996 21.4122C72.7651 21.4466 72.738 21.4877 72.7202 21.5329C72.7024 21.5781 72.6942 21.6266 72.6962 21.6751V42.2571C72.6942 42.3056 72.7024 42.354 72.7202 42.3993C72.738 42.4445 72.7651 42.4856 72.7996 42.52C72.8341 42.5543 72.8754 42.5812 72.9209 42.5989C72.9664 42.6166 73.015 42.6248 73.0638 42.6229H83.5037C83.5525 42.6248 83.6012 42.6166 83.6467 42.5989C83.6921 42.5812 83.7335 42.5543 83.768 42.52C83.8025 42.4856 83.8295 42.4445 83.8473 42.3993C83.8651 42.354 83.8733 42.3056 83.8714 42.2571V39.4574C83.8733 39.4089 83.8651 39.3605 83.8473 39.3152C83.8295 39.27 83.8025 39.2289 83.768 39.1946C83.7335 39.1602 83.6921 39.1333 83.6467 39.1156C83.6012 39.0979 83.5525 39.0898 83.5037 39.0917H76.6474C76.6232 39.093 76.5989 39.0892 76.5761 39.0806C76.5534 39.072 76.5327 39.0588 76.5154 39.0418C76.4981 39.0248 76.4846 39.0044 76.4756 38.9818C76.4667 38.9593 76.4626 38.9352 76.4636 38.9111V38.9088ZM56.6505 24.836H59.4397C61.9203 24.836 63.9107 26.1455 63.9107 28.8549C63.9107 31.5642 61.9204 32.8737 59.408 32.8737H56.6505C56.6263 32.8744 56.6022 32.8701 56.5797 32.8611C56.5572 32.8521 56.5369 32.8386 56.5198 32.8214C56.5028 32.8043 56.4895 32.7839 56.4808 32.7614C56.472 32.7389 56.468 32.7149 56.4689 32.6908V25.0144C56.4655 24.9899 56.4679 24.9649 56.4758 24.9415C56.4837 24.918 56.497 24.8967 56.5146 24.8792C56.5322 24.8617 56.5536 24.8485 56.5772 24.8406C56.6007 24.8327 56.6258 24.8304 56.6505 24.8337V24.836ZM63.7587 42.6138H67.6169C67.9233 42.6138 68.0164 42.3993 67.8325 42.1623L63.2367 35.9827C63.2192 35.962 63.2067 35.9375 63.2002 35.9112C63.1938 35.8849 63.1935 35.8575 63.1994 35.831C63.2053 35.8046 63.2173 35.7799 63.2344 35.7588C63.2515 35.7377 63.2733 35.7209 63.298 35.7095C66.0214 34.6122 67.8371 32.2077 67.8371 28.8594C67.8371 24.118 64.2217 21.3071 59.6281 21.3071H53.0668C53.0179 21.3055 52.9692 21.3139 52.9237 21.3319C52.8783 21.3499 52.837 21.377 52.8025 21.4115C52.768 21.446 52.741 21.4872 52.7233 21.5326C52.7055 21.578 52.6973 21.6265 52.6992 21.6751V42.2571C52.6976 42.3056 52.706 42.3538 52.724 42.3989C52.7419 42.444 52.7689 42.4849 52.8034 42.5192C52.8378 42.5535 52.879 42.5804 52.9243 42.5982C52.9696 42.616 53.0181 42.6244 53.0668 42.6229H56.1012C56.1499 42.6244 56.1985 42.616 56.2438 42.5982C56.2891 42.5804 56.3303 42.5535 56.3647 42.5192C56.3992 42.4849 56.4262 42.444 56.4441 42.3989C56.462 42.3538 56.4705 42.3056 56.4689 42.2571V36.5968C56.4676 36.5727 56.4714 36.5485 56.4801 36.5259C56.4887 36.5033 56.502 36.4827 56.5191 36.4655C56.5362 36.4483 56.5567 36.4348 56.5793 36.4259C56.6019 36.417 56.6262 36.413 56.6505 36.4139H58.979C59.0732 36.4225 59.1607 36.4661 59.2241 36.5359L63.3207 42.3813C63.3641 42.4561 63.4266 42.518 63.502 42.5609C63.5774 42.6037 63.6628 42.6259 63.7496 42.6251L63.7587 42.6138ZM47.1229 24.4793V21.6751C47.1245 21.6266 47.1161 21.5784 47.0981 21.5333C47.0802 21.4882 47.0532 21.4473 47.0187 21.413C46.9843 21.3787 46.9431 21.3518 46.8978 21.334C46.8525 21.3162 46.8039 21.3078 46.7552 21.3093H35.614C35.5653 21.3078 35.5168 21.3162 35.4715 21.334C35.4262 21.3518 35.385 21.3787 35.3505 21.413C35.3161 21.4473 35.2891 21.4882 35.2711 21.5333C35.2532 21.5784 35.2448 21.6266 35.2464 21.6751V42.2571C35.2448 42.3056 35.2532 42.3538 35.2711 42.3989C35.2891 42.444 35.3161 42.4849 35.3505 42.5192C35.385 42.5535 35.4262 42.5804 35.4715 42.5982C35.5168 42.616 35.5653 42.6244 35.614 42.6229H46.7643C46.813 42.6244 46.8615 42.616 46.9069 42.5982C46.9522 42.5804 46.9933 42.5535 47.0278 42.5192C47.0623 42.4849 47.0893 42.444 47.1072 42.3989C47.1251 42.3538 47.1336 42.3056 47.132 42.2571V39.4574C47.1336 39.409 47.1251 39.3607 47.1072 39.3156C47.0893 39.2705 47.0623 39.2296 47.0278 39.1953C46.9933 39.161 46.9522 39.1341 46.9069 39.1163C46.8615 39.0985 46.813 39.0901 46.7643 39.0917H39.1681C39.1439 39.093 39.1196 39.0892 39.0968 39.0806C39.0741 39.072 39.0534 39.0588 39.0361 39.0418C39.0188 39.0248 39.0053 39.0044 38.9964 38.9818C38.9874 38.9593 38.9833 38.9352 38.9843 38.9111V33.7949C38.9834 33.7706 38.9875 33.7464 38.9964 33.7238C39.0053 33.7012 39.0188 33.6806 39.036 33.6635C39.0533 33.6463 39.0739 33.6329 39.0967 33.624C39.1194 33.6152 39.1437 33.6111 39.1681 33.612H46.7643C46.8131 33.6139 46.8618 33.6058 46.9073 33.5881C46.9527 33.5704 46.994 33.5435 47.0286 33.5091C47.0631 33.4748 47.0901 33.4337 47.1079 33.3885C47.1257 33.3432 47.1339 33.2948 47.132 33.2463V30.4805C47.1336 30.432 47.1251 30.3838 47.1072 30.3387C47.0893 30.2936 47.0623 30.2526 47.0278 30.2184C46.9933 30.1841 46.9522 30.1572 46.9069 30.1394C46.8615 30.1215 46.813 30.1131 46.7643 30.1147H39.1681C39.1433 30.1185 39.118 30.1164 39.0941 30.1087C39.0703 30.101 39.0485 30.0878 39.0307 30.0703C39.0128 30.0527 38.9993 30.0313 38.9913 30.0077C38.9832 29.984 38.9808 29.9588 38.9843 29.9341V25.0257C38.9833 25.0015 38.9874 24.9774 38.9964 24.9549C39.0053 24.9324 39.0188 24.912 39.0361 24.895C39.0534 24.878 39.0741 24.8647 39.0968 24.8561C39.1196 24.8475 39.1439 24.8438 39.1681 24.845H46.7643C46.813 24.8466 46.8615 24.8382 46.9069 24.8204C46.9522 24.8026 46.9933 24.7757 47.0278 24.7414C47.0623 24.7071 47.0893 24.6662 47.1072 24.6211C47.1251 24.576 47.1336 24.5277 47.132 24.4793H47.1229ZM23.2518 39.0917H20.0041C19.9798 39.093 19.9555 39.0892 19.9328 39.0806C19.9101 39.072 19.8894 39.0588 19.8721 39.0418C19.8548 39.0248 19.8412 39.0044 19.8323 38.9818C19.8234 38.9593 19.8193 38.9352 19.8203 38.9111V33.7949C19.8169 33.7701 19.8193 33.7449 19.8274 33.7211C19.8354 33.6974 19.8489 33.6759 19.8666 33.6582C19.8844 33.6405 19.9061 33.6271 19.9299 33.6191C19.9538 33.6111 19.9792 33.6087 20.0041 33.612H23.2518C25.2422 33.612 26.3452 34.7409 26.3452 36.353C26.3452 37.965 25.2422 39.0917 23.2518 39.0917ZM22.9454 24.836C24.8745 24.836 25.9458 25.8701 25.9458 27.4528C25.9458 29.0355 24.8745 30.1012 22.9454 30.1012H19.995C19.9702 30.1049 19.9449 30.1029 19.921 30.0951C19.8971 30.0874 19.8754 30.0743 19.8575 30.0567C19.8397 30.0392 19.8262 30.0178 19.8181 29.9941C19.8101 29.9705 19.8077 29.9453 19.8112 29.9205V25.0257C19.8077 25.0009 19.8101 24.9757 19.8181 24.9521C19.8262 24.9285 19.8397 24.907 19.8575 24.8895C19.8754 24.8719 19.8971 24.8588 19.921 24.8511C19.9449 24.8433 19.9702 24.8413 19.995 24.845L22.9454 24.836ZM27.4164 31.5326C28.1839 31.0664 28.8144 30.4074 29.2447 29.6218C29.6749 28.8363 29.8898 27.952 29.8675 27.0577C29.8675 23.7997 27.598 21.3026 23.4356 21.3026H16.45C16.4008 21.3009 16.3518 21.3095 16.3061 21.3277C16.2604 21.346 16.219 21.3735 16.1846 21.4086C16.1502 21.4437 16.1236 21.4855 16.1064 21.5314C16.0891 21.5772 16.0817 21.6262 16.0846 21.6751V42.2571C16.0827 42.3054 16.0908 42.3537 16.1085 42.3987C16.1261 42.4438 16.153 42.4848 16.1872 42.5191C16.2215 42.5534 16.2625 42.5804 16.3078 42.5982C16.353 42.6161 16.4014 42.6244 16.45 42.6229H23.7125C28.002 42.6229 30.267 40.0332 30.267 36.6239C30.267 34.4023 29.1958 32.727 27.4187 31.7832C27.2961 31.6929 27.2961 31.6003 27.4187 31.5394" fill="#E40422"/>
<path d="M170.286 50.1593C170.286 50.1593 169.163 42.738 168.63 39.6087L168.857 39.5613C168.964 39.5383 169.064 39.4904 169.149 39.4215C169.234 39.3526 169.301 39.2647 169.346 39.165C169.39 39.0652 169.41 38.9564 169.404 38.8476C169.398 38.7387 169.366 38.6328 169.311 38.5385C168.049 36.3507 167.593 33.6414 167.593 30.932C167.595 29.3179 167.868 27.7155 168.4 26.1907C168.43 26.1049 168.459 26.0213 168.491 25.9355L168.555 25.7527C169.147 24.4322 169.53 23.0286 169.69 21.5916C169.859 19.6417 169.539 17.6806 168.759 15.8839C168.725 15.8229 168.691 15.7619 168.655 15.7032C168.884 15.4665 169.028 15.1604 169.063 14.8334C169.099 14.5063 169.024 14.1769 168.85 13.897C168.435 13.1836 167.581 12.8991 166.943 13.2648C166.878 13.3032 166.716 13.4138 166.648 13.4658C166.533 13.38 166.465 13.3371 166.465 13.3371C166.465 13.3371 166.285 13.2197 166.131 13.1407C166.131 13.1407 166.072 13.1113 166.072 13.109C165.402 12.8148 164.677 12.6648 163.945 12.6688C163.579 12.6687 163.214 12.7057 162.856 12.7794C162.109 12.9344 161.404 13.2487 160.791 13.7006C160.578 13.7653 160.359 13.807 160.137 13.8248L159.275 13.8654C158.868 13.8812 158.405 13.8654 158.405 13.8654C158.309 13.8648 158.216 13.9021 158.146 13.9693C158.077 14.0365 158.037 14.1282 158.035 14.2244C158.035 14.2425 158.169 15.421 158.169 15.4255C158.177 15.5704 158.218 15.7116 158.288 15.8386C158.359 15.9657 158.457 16.0753 158.576 16.1593L158.605 16.1796C158.664 16.2111 158.712 16.26 158.741 16.3196C158.823 16.5515 158.967 16.7563 159.159 16.9112C159.218 16.9473 159.311 16.9292 159.327 16.8637C159.493 16.2203 159.878 16.9134 160.611 16.5183C160.8 16.4167 160.9 16.8728 160.82 17.0715L160.752 17.2431C160.678 17.4316 160.555 17.5973 160.395 17.7233C160.236 17.8494 160.046 17.9314 159.844 17.961C159.52 18.0084 159.334 18.0401 159.338 18.0852C159.377 18.4487 159.338 18.7625 159.706 18.9883C159.757 19.0169 159.811 19.0403 159.867 19.0583C160.437 19.2073 162.1 19.8418 159.985 22.3231C159.859 22.4674 159.741 22.6181 159.631 22.7746C159.586 22.8377 159.547 22.905 159.515 22.9756L159.47 23.0636L153.115 20.6997C152.895 20.5977 152.705 20.4424 152.561 20.2482L151.935 19.178C151.789 18.9375 151.583 18.7384 151.338 18.5996C151.092 18.4609 150.815 18.3871 150.532 18.3855C150.238 18.3625 149.942 18.3625 149.647 18.3855C149.459 18.3855 149.35 18.4397 149.309 18.5503C149.257 18.8224 149.307 19.104 149.447 19.3428L149.992 20.3385C150.04 20.4085 150.728 21.9393 150.728 21.9393C150.797 22.1275 150.915 22.2942 151.07 22.4224L157.588 27.3196L150.714 30.7311C150.616 30.784 150.508 30.817 150.397 30.8282C150.286 30.8395 150.174 30.8287 150.067 30.7966L149.452 30.6114C148.317 30.1124 147.48 30.4601 146.983 30.8733L146.79 31.0562C146.749 31.0929 146.718 31.1393 146.7 31.1912C146.682 31.243 146.677 31.2986 146.686 31.3526C146.696 31.4067 146.718 31.4576 146.753 31.5005C146.787 31.5434 146.832 31.577 146.883 31.5981C146.883 31.5981 147.968 32.2325 148.208 32.3951L149.897 33.3908C150.16 33.5419 150.469 33.5917 150.766 33.5307L157.441 32.1919C157.547 33.7671 157.816 35.3271 158.244 36.8474C156.479 38.5704 155.29 40.7928 154.84 43.2121C154.518 45.0048 154.613 46.6282 155.115 48.5382C154.182 48.5902 153.283 48.7256 152.536 49.2427C151.79 49.7597 151.678 50.6109 151.674 51.0489L156.894 51.0602H157.334C157.492 51.0516 157.642 50.9937 157.765 50.8948C157.887 50.7958 157.975 50.6609 158.015 50.5093C158.062 50.333 158.094 50.1533 158.113 49.9719C158.278 48.5851 158.692 47.2391 159.336 45.9982C159.896 44.9577 160.595 43.9971 161.413 43.1421C163.003 45.3223 165.008 47.171 167.313 48.5834C166.559 48.6344 165.822 48.8315 165.144 49.1637C164.813 49.3618 164.539 49.642 164.35 49.9768C164.161 50.3116 164.062 50.6896 164.063 51.0737H169.463C169.637 51.0741 169.807 51.0201 169.949 50.9192C170.092 50.8184 170.198 50.6758 170.255 50.5116C170.266 50.4775 170.275 50.4428 170.282 50.4077C170.282 50.3829 170.282 50.3558 170.282 50.3309C170.29 50.2741 170.292 50.2165 170.286 50.1593Z" fill="black"/>
</g>
<defs>
<clipPath id="clip0_803_39277">
<rect width="193" height="64" fill="white"/>
</clipPath>
</defs>
</svg>
